/* XPM */
static const char *YnJpY2tz[] = {
/* columns rows colors chars-per-pixel */
"64 64 71 1 ",
"  c #2E271E",
". c #352D23",
"X c #373026",
"o c #393126",
"O c #3D3529",
"+ c #3F382C",
"@ c #40372B",
"# c #42392D",
"$ c #463E30",
"% c #483F31",
"& c #464032",
"* c #4D4334",
"= c #534738",
"- c #564A3A",
"; c #5A4E3C",
": c #5D513F",
"> c #584F40",
", c #5E5341",
"< c #625542",
"1 c #665945",
"2 c #6B5C47",
"3 c #665C48",
"4 c #675D48",
"5 c #685C48",
"6 c #6B5D48",
"7 c #695C4A",
"8 c #6C604B",
"9 c #6F604B",
"0 c #6F634F",
"q c #70604B",
"w c #72634D",
"e c #70634E",
"r c #74634E",
"t c #77664F",
"y c #6F6550",
"u c #736751",
"i c #726652",
"p c #766750",
"a c #786650",
"s c #756952",
"d c #7B6952",
"f c #7C6B53",
"g c #7D6B53",
"h c #7E6B53",
"j c #7E6C54",
"k c #7E6F58",
"l c #7F7057",
"z c #826F56",
"x c #807057",
"c c #807158",
"v c #857259",
"b c #83745A",
"n c #87745A",
"m c #87775D",
"M c #89755B",
"N c #89775D",
"B c #87785E",
"V c #8B795E",
"C c #8C795F",
"Z c #877A60",
"A c #897A62",
"S c #8C7B60",
"D c #8C7C61",
"F c #8E7E62",
"G c #8E7F63",
"H c #917E62",
"J c #8E8165",
"K c #908165",
"L c #938265",
"P c #938368",
"I c #928269",
/* pixels */
".oOOoOOOo.oO###++OoO#oO+&##Oo.. .O##OOoOO+##Ooo.o.ooOOO#ooO#OO+#",
"o-;;;;:;;-;;;;-OO--,<:,,1,-=-=*oO-:,;-=--;::;-*oo=;,,;-;;;:::-=O",
"#<<111112w61<<,#O;<0i61291:;;;:@#;122<;,<6221<;#o:4ii26<62w96;-o",
"o-<jcNcjznMad1<#O;6AImnnFxdpp:;@#;6dMzartvCCj2-OO<wLFnjznNSnN<;o",
".=:agvzdgnVjg1<##:6mAjcbVzgdp<;O#:wzvvgttnVVj6;##<2NnvjVLFFcj<;@",
".*;1<1<<29w12,:O#;,69111611066<##<qq6w1<;1<621:#O-:11<:1w96<1;;@",
".*;;;;::,,<:<;=O#;-;--;::::,<1,##;:-=;-:-:-::<;oo*;,<---,;;;--=@",
".o###OOO+OOO###OO###+Oooo##%%%#OOOOooOO#O@O@##O..o###OOO@O@OOOO.",
"oO@#@#O..o@@#O##&&%+oooXo##O###@#Oo..oOOo@###@o.o#&%###oo##OOoOO",
";:,<;,-Oo=;-,;,,141<,-=o#;:-;,,;:;;-:;=Xo=::<:-=-::::<;@@;;---;;",
":<26<<:#O-<1621466062;-O%16<26969696q<-oo;<166<<<<216<:O#;<<216t",
"vMnMz1:#O*;dLFmztdzvc<-O%<6dNCSLFVMMV1-oo;<jNVnzzglgj<:OO-<gNMCH",
"zvgvj<-oO*-dHLHMatgxj<-O#10jMNFLZnnCN2;##<<pjNVMvzmmc2,OO-<gzMMV",
"w9<161:oO*;1ww6q21<12:-O#:,<16ws6;;<21<%#<1116ww612192,Oo-:21226",
"<:-;::=.o*-;;-;::::;,;=OO;-;:<,,=**;:<;#@-;--;<<,:,<<<;OO-;;-;;;",
"##O###+.ooO#Oo.oOO####O.oOO+####o.oO#$#OoO#######%%###@.oO#OOoO#",
".O####OOO#O#Ooo..O@@@#OOo%##O##o.oO###OOoOOO@OOoo%####Ooo+##+O#O",
"o;<,,1<<<<;;;;=oo=;;,<,;;,,;-,:#o*-,:>---;:;--=O+,,,:;-*=;<,;-;#",
"o;<119266r90y6,O#:1229666941<<,%#;;1614<1,1<<;=O@:<<<11<10wi62<%",
"O,<djFVFVCnAZ0<@#<wVLFCnNjczc6,#@:1gxdlgkdvcd;*O#<2jvxncnnNCz6:#",
"O;:qtjgjvMCLF9,O#<tLFFMNMvvvx2<##<2tgdAmcdcFn<=oO-1gVzncCMVNvw1#",
"O;<<6661611261;o@,9ss04162<;<6<+O;1<:<12<19pw:=oO-<wi1<:112126,#",
"o-:;<:;=-=;;:;*.o=:,,,;:,<;=-;;#O-;-=;;::;<1<;=oo&=;,--*;-;;,<;O",
"oooO##Ooooo###Oo.ooO+#####Ooo+#ooO##OOOOOoOOOooo.o.ooOoooOO###Oo",
"#OooO#O..O#%##O#ooooo##+O#O#OO#@#####O#oOO#OOOO#Oo.oOOO.XO###O##",
"-;-=-;-Oo;:<,111::-;;,:#O-;:;:;-;:,;--;OO=;:;;;;---;<<;Oo=;-;;<<",
"121<<1:#O,6s0i96111<:;;OO;,2662112961,,#@;6dp922<<1wi6<@O=,406wr",
"bxdd6<-Oo-2VVFVVcVnnd<;OO-<vHCvxggxjj<<#O-<FFHzgtdcFB6,#O=<bFSCL",
"Lcwt6<-Oo-6VSFvmcBcjw,:OO-1zMNMSxxjVm6<#O;<FFFvxgdtzg<-OO=<lmcxN",
"0<;:<1,#O;1621<1196621<Oo-<22126<,;69w2%O--12wq921<<<<-OO=;:<<2w",
":;;-,<,##;::;;-:;::::;=.o=;;==-:--=:;<:#o*-,<<<<,:--;:;Oo*-----;",
"OoOo##%OoOooOOoooO###+o..o#Oo...oooOo++o..OO###OO######o.oO#oooO",
".oOoOO##%+ooOOOXoOO#+Oo.ooOoo.X.oO##oOO+O##O+##.oO#####OoO##Oo..",
"o=-*;;<,<,;*===oO;-,;:;=-=;==**oO;11,;-;;:;-;--XO=<,,:<;;-:<:-*o",
"#;::6ws9w96<1<;oo--112212:<;;==O#,iss91160966<;O#;<<6qt69161q1;O",
"%:1qcnFVNcjsd1:OO;<jvnMMvdtt2;-##<immjttdnCCv<;O#:6jCHICMjNMNw<#",
"%;16glmNjdqtd6;Oo=,tzzMNVdstw:-O#,6xvzwqqcNCv2;##<6vLIInzajzj6:O",
"O-<<<<291<;<1<;OO-<22262611466:#O;<<11;;-<162;-##<1ww01<<<<216;O",
".%=;:::;---;-;-OO=;;;-;:<:<,,:=oo=;;<:;=%&=:,;-O#;;:<,-;-=*=-,-o",
"  .o@###O+OOooOoO+###@O###%%%#OoXO#O@O@o..O####ooO@OOOo+OOOOO#Oo",
"...oO##Oo##OoO##O###OOooo#####O#O+OOO##oXX+O###O@@##@#%#OO@OOOOo",
"-=%&=-;##,,,:;:::<,,;;=OO:,,,<:,::;-:,,O#-,-:,,;;,<:;:;Oo-::;;;-",
"<<:<1<:##<2qww266021::;##,<1<1<1<211604##<1<1661121<<1<Oo=;<<11<",
"Vxszd<-@#,6MLHCAVFNvt:;@#<1ddjgtxNHFVw<##<6jzjjxgzzdw:-oo=;qgzvx",
"FnmVN2;O#<2cFLAVNFNvt<;##:1agagdzNHLB9:O#<wcvjjzvNVza<;#O-;qjnVn",
"t662w6:Oo;<16w01<221<,;#O-<11<66210is1;o#:1<<<16606<<;;OO;:126wt",
";;:-,:-.o=---::=-;--=;-OO=,;--;:;-,,<;=.O-;;;<;;;,:;;,:#O=;:::<1",
"oOOooOO..oOOOOOooOOOO#OooO#OOO###O+####oO######OoOoooO#ooo@@ooO#",
"oOOo..o.oO##OOo.oO%####OO#%#Ooo..o##OoOOOO###%O..O#OooOOooooo.o.",
"O-;-==----:<;;*oO-1,<;;-;:1<<--OO*-;;;;,:,-;;,=oo-,--*;:;==---*o",
"O:<1<<1<1<22<;=O#,06i66<26wq61:Oo=,2611<<1<<<,=o#,911:161<:161;o",
"#,1gjCNxdgxvp;*oO;6zFAmcvvzvNw<#+;<zVFnncCvzt;=.O-2gvvvvgzxVMw<#",
"#<2djCHMgjnMj;*.o;6jVVAnvnznc6:OO-1dmcjjjCHFc:-oO-<cVnddgvvMj6,#",
"#<1<<12<<1661;= .*<<11<<<1<<1::O#-<<2<<<1www6<-oo-,609<;;<122<:#",
"O----;:::,;;;;=..*;-=-=--::--=;O#=,--===-;,<,:=oo-,<1,;--=-;;-=o",
".oOOOOOo@#OOoOo..ooOo#O@O@@OOO#o+#$OOoooO###O#Ooo@#####OooO#Ooo.",
"OOO#O@OooOOOO@OooOOOoOOoo@###OO#&&#OOOOXo######@#######o.o#@O.oo",
"=;<<:-*oO=;------;,,;;-O@-<<,;-:,,;;,:-O#<<4,<:<:;---;;+O=<;;===",
"<26q1;=O@-,<212126661:*oO;<6696w611691;O#<9i0w6qq6<<:1,##-<<2<1<",
"9dnjt;-OO;<avvvzNNSVz<-OO-<jmFJJnmNHn2;oo;9FIFFCHngtw1,%#;<pgzdd",
"ddvtt<;##,1gzjzjMvnvz2-Oo;1lmFFLnFCLc:=.o-6cFFHMmbldp6<%#<1zjctt",
"1<2:61<##<11122<62922<;@@19916602www6:=..*<2662211611<1%%<<1<6<:",
";-;;<1:@O;:-=---:,<,::-O@,1:;;:<,,:<,-*..*;:;--;-;:;-:<##-::,<,;",
"oo##%##oXOOOo@O@######OoO##OOO#%##@###Oo.oO#+Oo@###oO#%OooOO##&#"
};
