/* XPM */
static const char *dHJlZXJpbmdz[] = {
/* columns rows colors chars-per-pixel */
"64 64 119 2 ",
"   c #6D6353",
".  c #736955",
"X  c #7B6C55",
"o  c #7C6E5A",
"O  c #7F7057",
"+  c #7E715C",
"@  c #7E7260",
"#  c #83745E",
"$  c #88775D",
"%  c #86785F",
"&  c #8A795E",
"*  c #927D5C",
"=  c #857661",
"-  c #897761",
";  c #867962",
":  c #8B7C64",
">  c #8E7E69",
",  c #917E65",
"<  c #917F69",
"1  c #94805F",
"2  c #8E8066",
"3  c #8E8169",
"4  c #938266",
"5  c #9A8565",
"6  c #9E8866",
"7  c #94846A",
"8  c #9A866B",
"9  c #96896D",
"0  c #9C8A6D",
"q  c #968670",
"w  c #9A8770",
"e  c #978971",
"r  c #9D8C71",
"t  c #9F9172",
"y  c #A98C63",
"u  c #A08768",
"i  c #A28D6E",
"p  c #A88D68",
"a  c #A5916F",
"s  c #AB916C",
"d  c #AE9A6E",
"f  c #B0956D",
"g  c #A28E72",
"h  c #A98F71",
"j  c #A38F78",
"k  c #A49274",
"l  c #AA9574",
"z  c #A79977",
"x  c #AD9975",
"c  c #A59479",
"v  c #AB9679",
"b  c #A69879",
"n  c #AD9A7A",
"m  c #AF9E7A",
"M  c #AA987D",
"N  c #AF9B7C",
"B  c #B29672",
"V  c #B49775",
"C  c #B59871",
"Z  c #B49972",
"A  c #B09975",
"S  c #B29A75",
"D  c #B69974",
"F  c #B79B76",
"G  c #B69E77",
"H  c #BA9D75",
"J  c #B19479",
"K  c #B59B78",
"L  c #B29C79",
"P  c #B19C7A",
"I  c #B49E79",
"U  c #B49D7B",
"Y  c #B89F79",
"T  c #B99F7B",
"R  c #AEA17D",
"E  c #B3A077",
"W  c #BBA077",
"Q  c #B5A07B",
"!  c #B3A07F",
"~  c #B5A17D",
"^  c #BBA17A",
"/  c #BAA27B",
"(  c #BDA27B",
")  c #BAA27D",
"_  c #B8A37E",
"`  c #BDA37C",
"'  c #BDA67F",
"]  c #BDA97F",
"[  c #C2A27D",
"{  c #AE9B82",
"}  c #B39D81",
"|  c #B99E81",
" . c #B5A281",
".. c #B4A382",
"X. c #B7A383",
"o. c #B9A382",
"O. c #BBA582",
"+. c #BDA681",
"@. c #BBA684",
"#. c #B4AA85",
"$. c #BFA884",
"%. c #BDAA84",
"&. c #BCA788",
"*. c #BCAA88",
"=. c #BDAB89",
"-. c #BDB086",
";. c #BFB18A",
":. c #C1A684",
">. c #C0A982",
",. c #C2AA85",
"<. c #C8AC84",
"1. c #C3A688",
"2. c #C2AD8A",
"3. c #C8AE8B",
"4. c #C1B087",
"5. c #C3B18C",
"6. c #C9B28E",
"7. c #C3B291",
"8. c #CBB594",
/* pixels */
"v g : = : 4 9 0 0 4 : : 4 k Y ' ' ' ` ^ K l k 2 ; > 9 k k 0 5 : : 5 i x G ^ o.o.@.@.Q U U c 8 = = > r c c t 9 7 2 : : : ; % : : ",
"r > + + # : 2 4 : : ; , i S ) +.>.>.' P g 9 9 r c v k 0 4 : % % & , i S Y Y U U @.*.%.+.+.) c 2 = 3 c ~ @.! v k 9 3 2 4 8 8 8 8 ",
": # # # # = : : : : 4 0 l G U n P ' c 9 9 c M N k 9 8 4 > & 5 4 , 4 0 l H H C B S ) ' ' ' ' G 0 : 8 k x ~ ) ~ m k 8 3 9 k k v v ",
"= = > 4 4 > 4 4 9 9 g l 0 8 0 8 4 0 4 9 v 9 e 8 > 4 4 7 > 4 4 & 8 5 0 l D H C B V Y Y ^ ^ ( ^ l : , 4 0 x P c v v 9 > 8 k v } ..",
": 8 k k k g g k c k c k 9 9 r r 4 > 4 v 9 : = = : > : 2 4 > : 5 : a k x U Y D B V Y ^ ^ ` ' ^ S 5 : : 4 i i 9 0 0 4 : > 9 b ..*.",
"r N ....N v n P n r 7 0 v ..@...v r 9 9 : > 9 k } } n P P c 5 4 4 S x S U Y D B B Y ` ' >.>.+.Y i 4 : : , 4 4 : : # # = 2 t N ..",
"N *.*.@...P P P 9 4 t P ) ~ ) ~ ~ } j : , l x x o.@.o.) S a 0 : 5 S x S 8 # # U D Y ^ ' >.,.+.^ S 0 4 : : : : # : ; # + = 9 r k ",
"..2.2.*...! ! c 4 8 c ! ~ U P U ..c : > c O.+.%.2.o.U Y Y x 5 & # # : 7 k b c 7 9 c U G ^ ) ) ^ ^ P k r 9 7 4 8 8 4 : + o = > > ",
"*.5.2.%.@...c 8 > 7 k m U U U ) c c : 0 ^ ' ' ( ) l f H H a 4 , 5 6 0 k x v m } c 3 r Q k k U G Q ) ~ P v c c c n n g > O o % > ",
"*.5.5...v v r : : 8 a x S a k ' 9 , : l ^ ( ^ H Y V C H K k 0 0 4 8 4 8 9 7 j c v { > 4 ; 4 : > @.+.o.~ U P m N ..@...k : o ; 4 ",
"*.*.v 9 4 4 , : , i 0 4 4 8 8 8 : : 5 U ' >.' ( Y B B Y U x x 4 4 > 4 5 ; : X + > N c 9 k ..! c 7 r %.o.) ~ ! ..*.*.*.N 7 # ; 8 ",
"..k > : > : : , 0 0 5 , : # > > : 2 l ^ >.,.' ) Y B l g x x S 5 % C ) +...2.) c : : j P ..o.) Q Q 7 9 @.~ ......%.2.5...r ; = 7 ",
"c 2 : 8 0 8 8 i 0 > > 4 9 8 7 9 g x ^ ^ ) ) U S U 0 7 r 4 ; # # 4 i G Y ..*.~ ) ) > 4 P o.P P U ! r 3 c ~ ~ @.*.%.5.5.*.c 2 % : ",
"7 ; 8 c c c v 0 % : k ..P v n P U +.) S P P ~ P 9 M c 0 k 0 5 1 : 4 H ) y S ( ' [ l $ N ~ ) Q P m 9 2 > k ~ @.%.%.2.5.*.n 0 : % ",
": > r v P m k 7 # 0 &.*...! P ~ ~ %.@.7 3 a : : { 7 ; ; = & = : 4 0 K H S D D G Y ^ : > c c k S x a 4 ; 9 9 9 @.*.%.5.*...z 8 ; ",
"9 > r c P U k : % v *.2.*.....o.+.! 3 %.5.*.c w > > x *.P ..U & 0 m D v s B ` >.<.` s # : 7 : : 0 l g > % = = = v %.5.5.;...k > ",
"P 9 g P Y g > # 7 R ;.5.%.%.@.~ ~ 4 ! ) S n | 4 7 +.~ *.~ Y a 8 o # 4 k 4 0 l G +.` ^ k 4 : 2 4 % 4 l k 0 0 i , ; c *.5.5.5.@.c ",
"4 0 n ~ k 8 : 2 t R *.2.%.@.~ m 8 : g P S S P - ^ ` W D s ( i : p l %.~ ....; 4 : 8 Y *.U ..c ....# & n n n n g : 4 %.%.2.5.%.! ",
"0 n @.c k ; # 9 ..;.5.*.*.! 4 4 = 8 a 6 4 g 2 4 ` >.( D s ` l a i > : 4 r @.c r %.v : P P P Q *.7.U o 0 P P l r : 4 +.%.2.5.2.%.",
"P +.,.v : # r ..5.5.2.*.r = 8 7 4 g : : : ; 9 Q ` ' C U :.U x i & P v } 7 : n ..n U ..> ~ o...2.5...; : v Y K g 9 +.+.%.%.2.,.,.",
"@.%.v 4 # : n %.2.%.%.P : k ! v c + c @.b ..%.) l x P r 7 v > X 8 S U %.) g 8 ,.^ Q c : 4 x ) %.5.n 0 : 8 c ) P 8 4 +.@.@.@.%.,.",
"! k 9 > 4 m %.5.5.%.%.P : r l n 4 : 5.*.! P @...: 9 : c @.@.) C 8 S s D ` ' % l l C S k # : : ..5.6.#.: + k v +.~ g : ) ) ) %.%.",
"c r 3 : k %.,.%.%.%.+.@.4 k U i : 0 *.%.) ! 2.3 ) P } } o.n x Q l S ` D Y ' l ; ; % 0 U c c k ; @.5.6.@.# ; n ,.%...9 : ) %.%.%.",
"k r 7 7 ~ %.%.%.^ ) ) > c ..l # : *.5.*.%.P : ; P ^ ,.o.< w r % ..6.@.o.Q x +.%.N %.3 4 ) n k : ..%.5.,.n : 9 v ~ P r = x %.%.' ",
"j k : 9 ..%.%.%.%.] : M ,.&.4 % %.6.*.~ : 4 > U G o.) 0 Q +.D i # P 9 c k @.6.@.~ 2.n ; P ) U : Q %.*.%.,.x ; 0 x k 9 ; z @.) Q ",
"k c : 9 ~ ` ^ %.%.Q : v P 8 : P ,.*.@.+.: v ) s U : # 5 ' D Y l ' ~ o.v n : i P %.*.;.> 3 ~ ,.+.: x G ,.-.,.2 r n r : 9 @.%.) ) ",
"9 r 3 k %.+.Q Q ) Q > 9 k 7 k 4.%.Q ) ) : O.+.2.: %...,.x +.%.*.d ~ 1.:.^ 8 4 c Q ~ 5.2.% k %.@.v : ;.%.) %.2 9 ..8 : r N 2.,.+.",
"r w > 0 S ^ +.,.2.o.9 ; k 3 v ) %.4.x 7 ,.,.U k 7 5.%.l Q %.,.<.; : ` ) O.s P > @.:.) %.@.: P c 9 > ~ x ) 6.r 9 v r 4 ; r 2.>.+.",
"k r 2 k U ^ ` :.2.v : ; k 2 @.) S ! g 9 m ,.x ; 2.@.Q ,.6.: 7 n B ` : S ) 2.+.8 k ^ %.,.) 2 @.v ; M 6.2.H l 5 8 c c : + 4 c ' ) ",
"v r > 0 s C ^ ' n 8 % 0 k ; k H 2.6.| # ..,.k m ,.` ) S : S :.S 2.~ ..k ` <.) @.4 ' ~ S ) w c @.% ; P ` ) U k 8 v @.n 7 4 c k Y ",
"k 9 4 8 i l K Y v 9 v @.k : k S Y %.4 4 %.,.4 Q U ' 2.k U ,.) %.+.2.^ ,.# <.+.%.% J 2.,.S 4 k @.P : c S l i 9 8 k ..o.k 4 g l Y ",
"v v 3 : 0 k ^ ' x 3 m @.b ; 8 l ,.' : ..*.,.4 k <.[ <.: ,.>.<.,.) ,.,.+.> >.+.2.k i ,.,.l : k *.@.k 4 +.l 0 : t v %.@.n 3 g l ) ",
"@.v r : 4 8 C ^ k : N @.U k : 4 H U : ..o.%.N % D ` ) ; %.@.Y S ,.~ +.0 8 ~ %.o.v k ^ ^ : : *.o.@.r 2 S 5 4 > v @.@.o.v > 0 k G ",
"~ k c r # : i S i ; 9 P P c : % a k = l U U ~ 4 : 7 K > ' %.O.:.) +.,.: P ,.,.:.4 8 i : # 9 U ~ U , , B % & c v ~ U P r : 0 k l ",
"U ) k 9 # 4 4 g 7 = 8 Y U n % o % # # 7 ' >.,.g g g U ) l Y ~ +.,.) l v D ) Y ) 4 8 8 4 4 0 Q U l : + $ % 4 k P o.U P g : 7 0 i ",
"U o.k k 7 o % : % ; : k P E r , > c o 0 U O.U g = ` 8.,.: = Y :.P P t = %.3.>.+.= l , k r P +.` 8 : o > : > i l o.U l 7 = : : 4 ",
"U ~ g i . : 4 > + : : 8 ` ~ k r g ) o 4 P ,.+.g < U B U ` :.9 : 7 ; Y ^ ` ) 2.*.g U , g k g +.U i : 8 : 4 0 c ) ~ n 0 , = % # & ",
"P ~ ) k 8 8 o r r # 4 g U o.: g l 8 g : +.,.,.%.4 2.c x U U U ' ~ %.%.S V o.i # 2.` :.% 8 ,.:.x 8 O g 9 9 v P +.' l 8 , = # + : ",
"P ` ' c c r : 0 0 > # u a Y :.c 0 % k > *.%.%.Q , 8 r %.:.J K ) 1.K D 1.l 7 c : C U S ; 0 @.+.n 8 o ..n U > o.o.O.k 8 , # : : = ",
"S O.>.n r g g P %.4 = k ~ >.,.0 4 [ :.g 3 o.6.3.:.8 9 : r ) U x 2.+.U 4 : U i k S +.k k 0 %.2.@.: : g g g l l ) Y S i , # g 4 = ",
"J ` v n   c l v U o # 5 l o.S 8 : i ) i # & 6 N K h l > k r } | , = 4 : U P P 0 n 2.) > v +.2.*.: 5 # 0 l >.,.O.S k 5 O > g 8 7 ",
"S Y ` l l k k g g - , : o.2.| > P 9 x U : w o.l : | 1.| 8 g l v k O.J J Y ,.2...g i : g 6.2.U w 9 O.B 7 9 ,.,.:.U l 8 ; > v P g ",
"l S ) :.+.l k g # 4 4 : *.2.+.r > l U U g 2 + > : 0 J Y Y O.) Y +.2.U P ) x k r > > 4 +.*.U k # g K 4 4 9 v +.o.x i , o : g v l ",
"x U +.,.,.n r > 8 K k > c +.*.} r 0 3.%.P 9 g n g : % K U :.U 2.l U U U %.4 # > 4 , k v 5 * O : k g 9 l : c ,.,.%.v : - : 8 c c ",
"c P +.:.:., r > l :.v 0 : 8 S O.c ; i k k b 2.2.,.+.: 0 0 = 9 i &.%.&...4 P : J M 7 : U %.k 8 ; k 4 i k 7 c 2.2.%.j 7 : : 8 c n ",
"c P @.+.c 0 8 7 0 K U g : 8 U N P 8 : r 3 3 P +.+.%.k g 5 g j = > > : > : = l K k 4 : = 4 ; 4 9 x U s > k @.,.2.*.r 4 4 > : g c ",
"P %.,.,.c g - 8 9 k P g : X * * 5 r & = 3 9 r > 5 K O...&.6.&.l l P P K ) V C 0 , # 8 8 ; : c U 2.3.> j N 2.2.%.N 9 8 l J 8 , 8 ",
"v %.2.2.v r : r 9 0 P g = g 4 P %.%.: o : 7 : : > @.@.P P P P x 2.U | +.U U i + 9 n %.2.N t l k l 5 > v 2.2.+.n 9 4 r v ` i , 8 ",
"v *.2.,.v 0 r g l a S g > ; ; 9 P 4 ; = r 8 0 ; n 0 i 2.2.2.%.o.k n 7 : g P 4 , 2.+.+.@.v 9 w } k % 8 ..o.n k , : > l k S i 4 7 ",
"c @.2.,.2.N g 7 0 U ] o.c k 4 = o = > : & 6 k g w # : > q r c k : > 9 9 > 7 w c O.P ~ ..7 = : = o 8 c ~ P l l 4 : 8 k U k 8 4 > ",
"e v o.,.2.P } 9 8 U >.%.o.P 8 8 9 k c 0 > > $ 4 , 0 k 0 5 8 4 > & k @.6.&.| O.P s & # : b k q ; : 0 n k i 5 4 & = 8 g c 0 8 8 > ",
"3 9 k U +.,.N 9 2 0 l l l c t c N ,.%.U k 8 + 4 v U U ) | S U 2.c P U P U P o.! @.: = > : > : % 4 i P P P g 4 4 ; 8 g k 9 r r 4 ",
": > 7 k P U @.v : : 0 P N c k N *.2.,.,.,.o.7 & n Y k > > v n k o.o.&.2.2.6.l i k l : 8 7 8 8 = - > k P P r , : ; 9 i l a k g 9 ",
": : > 0 k c P k 8 > > j r 7 4 9 n o.o.) %.%.i , : : = ; : > g g ) *.} &.N 9 r # # g < v g 0 8 > > : > 4 4 > : 9 9 c k P l i 9 g ",
"> ; : 0 i i k J g 8 : # > > > 7 k v c c U o.~ l r 8 g N | j 9 = > : ; : > 9 7 , = 3 i k i i > : 4 > : = # : 4 k v v >.' x 8 4 r ",
": % : : 4 8 i k n 0 > + = > 9 r 0 4 : : i S U O.%.@.2.2.2...v 0 0 g g g i k P c h s 6 5 : ; : 4 c k g 9 7 7 8 P U o.+.) k 4 4 0 ",
"2 : 4 4 9 k P U P l , % = ; 7 8 3 > ; ; k P Q ~ U U ..o.) ~ P x ) U P P U o.%.) U P i & # 7 r n v ,.%.k v t k l c l l i 4 : > 8 ",
"8 ; : , 9 k ..U v 8 : # # : : : 9 4 : 4 v ..P o.%.+.@.o.~ U U U %.@.~ P c c l v P n 8 # > v n ,.,.,.,.@.N c k c N P k 4 % % 4 i ",
"g 9 8 4 > 9 0 0 7 : = : = 4 j 7 9 w = 0 k 0 8 g ..@.*.2.*.%.@.Y c c k 8 > > 4 r k r : : l %.,.+.+.%.@.m t 9 9 w j v 8 : % & , 8 ",
"0 0 0 4 : : = = ; ; : > > - 4 0 i l 8 4 7 - = < 9 r c N N P ..v 9 7 > 4 : : : : > > 4 9 l +.) U P P N k 9 : : > 7 > : : > 4 8 8 ",
"8 i g 8 < : ; : 3 9 w 9 2 : 4 8 4 i 0 = = : : < > > > > > > > > = > 9 r N M v 8 9 8 c k o.U l g 0 r k t 9 3 > : = o = 4 r c c 9 ",
"8 k n g 8 9 8 9 r c N c 9 4 : : : : 6 a 0 l c k c k 8 8 8 9 8 8 4 g k v *.2.,.@...o.o.o.P l i : : > 7 0 r 9 4 ; @ o = 8 c P k 8 ",
"2 r v c r q 9 3 t P P v k g 9 , # : : 0 g k l o.l l k k g k k k i g U ) o.@.o.~ U U ~ ~ P n 0 : ; : > 4 8 8 2 = + + = 7 r r 9 4 ",
"> 3 9 q 7 > : : 9 c N P N k r 0 : # 4 k P U P P P n P P U ) +.%.U U U U ~ ..o.o.@.o.o.~ ~ ! k 4 : > > > : ; = = + + = : : : > > "
};
